<svg width="16" height="18" viewBox="0 0 16 18" fill="none" xmlns="http://www.w3.org/2000/svg">
<g clip-path="url(#clip0_1_253)">
<path d="M7.99984 18C9.26127 18 10.2845 16.9928 10.2845 15.75H5.7152C5.7152 16.9928 6.73841 18 7.99984 18ZM15.6923 12.7368C15.0023 12.0069 13.7113 10.909 13.7113 7.3125C13.7113 4.58086 11.7656 2.39414 9.14198 1.85766V1.125C9.14198 0.503789 8.63056 0 7.99984 0C7.36913 0 6.8577 0.503789 6.8577 1.125V1.85766C4.23413 2.39414 2.28841 4.58086 2.28841 7.3125C2.28841 10.909 0.997342 12.0069 0.307342 12.7368C0.0930559 12.9635 -0.00194413 13.2346 -0.000158413 13.5C0.00377016 14.0766 0.463413 14.625 1.14627 14.625H14.8534C15.5363 14.625 15.9963 14.0766 15.9998 13.5C16.0016 13.2346 15.9066 12.9632 15.6923 12.7368Z" fill="#514D59"/>
</g>
<defs>
<clipPath id="clip0_1_253">
<rect width="16" height="18" fill="white"/>
</clipPath>
</defs>
</svg>
