<svg width="28" height="20" viewBox="0 0 28 20" fill="none" xmlns="http://www.w3.org/2000/svg">
<path d="M27.125 8H0.875C0.53 8 0.25 8.392 0.25 8.875V10.625C0.25 11.108 0.53 11.5 0.875 11.5H27.125C27.47 11.5 27.75 11.108 27.75 10.625V8.875C27.75 8.392 27.47 8 27.125 8Z" fill="#514D59"/>
<path d="M13.375 16H0.875C0.53 16 0.25 16.392 0.25 16.875V18.625C0.25 19.108 0.53 19.5 0.875 19.5H13.375C13.72 19.5 14 19.108 14 18.625V16.875C14 16.392 13.72 16 13.375 16Z" fill="#514D59"/>
<path d="M27.125 0H14.625C14.28 0 14 0.392 14 0.875V2.625C14 3.108 14.28 3.5 14.625 3.5H27.125C27.47 3.5 27.75 3.108 27.75 2.625V0.875C27.75 0.392 27.47 0 27.125 0Z" fill="#514D59"/>
</svg>
