<svg width="20" height="20" viewBox="0 0 20 20" fill="none" xmlns="http://www.w3.org/2000/svg">
<path d="M11.875 11.5625H8.125C6.55081 11.5642 5.04159 12.1904 3.92847 13.3035C2.81535 14.4166 2.18924 15.9258 2.1875 17.5C2.18749 17.5605 2.20503 17.6196 2.23797 17.6703C2.27092 17.721 2.31787 17.7611 2.37312 17.7856C2.49062 17.8378 5.30031 19.0625 10 19.0625C14.6997 19.0625 17.5094 17.8378 17.6269 17.7856C17.6821 17.7611 17.7291 17.721 17.762 17.6703C17.795 17.6196 17.8125 17.5605 17.8125 17.5C17.8108 15.9258 17.1846 14.4166 16.0715 13.3035C14.9584 12.1904 13.4492 11.5642 11.875 11.5625Z" fill="#514D59"/>
<path d="M10 10.0001C12.5041 10.0001 14.375 7.37131 14.375 5.021C14.375 3.86067 13.9141 2.74788 13.0936 1.9274C12.2731 1.10693 11.1603 0.645996 10 0.645996C8.83968 0.645996 7.72688 1.10693 6.90641 1.9274C6.08594 2.74788 5.625 3.86067 5.625 5.021C5.625 7.37131 7.49594 10.0001 10 10.0001Z" fill="#514D59"/>
</svg>
