<svg width="29" height="29" viewBox="0 0 29 29" fill="none" xmlns="http://www.w3.org/2000/svg">
<g clip-path="url(#clip0_1_210)">
<path d="M29 14.5C29 22.509 22.509 29 14.5 29C6.49099 29 -3.05176e-05 22.509 -3.05176e-05 14.5C-3.05176e-05 6.49102 6.49099 0 14.5 0C22.509 0 29 6.49102 29 14.5ZM2.92716 16.7146L4.72436 17.0771C5.16956 17.1678 5.63061 17.0262 5.9529 16.7033L6.82516 15.8311C7.47653 15.1287 8.58669 15.3553 9.00016 16.1879L9.52692 17.2357C9.74782 17.7795 10.3539 18.074 10.9599 18.074C11.8209 18.074 12.4383 17.298 12.189 16.4711L11.8549 15.3439C11.5886 14.4717 12.2457 13.5938 13.1576 13.5938H13.2879C13.9959 13.5938 14.7549 13.2143 15.174 12.5855L15.78 11.6736C16.0972 11.1979 16.0802 10.5691 15.7347 10.1047L14.8228 8.88691C14.2394 8.11094 14.6359 6.98945 15.5818 6.75156L16.5447 6.4627C16.9695 6.40605 17.315 6.10586 17.4793 5.69805L18.4025 3.38088C17.1847 2.95211 15.8707 2.71875 14.449 2.71875C7.99196 2.71875 2.66774 7.99199 2.66774 14.5C2.66774 15.259 2.79009 16.001 2.92716 16.7146ZM25.5109 17.0148L24.616 17.2697C24.2365 17.3717 23.8343 17.2188 23.6248 16.8902L23.5115 16.7146C23.1716 16.1822 22.5826 15.8084 21.9482 15.8084C21.3195 15.8084 20.6795 16.1822 20.3849 16.7146L20.0394 17.2527C19.9601 17.3773 19.8525 17.485 19.7222 17.5076L17.6209 18.6971C16.6467 19.2691 16.2275 20.5322 16.658 21.6027L17.0205 22.3051C17.5076 23.3926 18.7593 23.9193 19.8299 23.5002L20.0224 23.3982C20.5945 23.234 21.2289 23.3246 21.7216 23.6814L21.8066 23.7438C23.9136 22.0729 25.4373 19.6996 26.0207 16.9752C25.8507 16.9582 25.6808 16.9695 25.5109 17.0148ZM8.84157 20.8154L10.6541 21.2686C11.1412 21.3932 11.634 21.0986 11.7529 20.6115C11.8775 20.1244 11.583 19.6316 11.0959 19.5127L9.28337 19.0596C8.79626 18.935 8.30348 19.2295 8.18454 19.7166C8.05993 20.2037 8.35446 20.6965 8.84157 20.8154ZM13.3955 18.5838C13.2709 19.0709 13.5654 19.5637 14.0525 19.6826C14.5396 19.8072 15.0324 19.5127 15.1513 19.0256L15.6045 17.2131C15.7291 16.726 15.4345 16.2332 14.9474 16.1143C14.4603 15.9896 13.9675 16.2842 13.8486 16.7713L13.3955 18.5838ZM18.2213 6.84219L17.315 8.65469C17.0884 9.10215 17.2697 9.65156 17.7172 9.87246C18.1646 10.099 18.714 9.91777 18.9349 9.47031L19.8412 7.65781C20.0677 7.21035 19.8865 6.66094 19.439 6.44004C18.9916 6.21348 18.4422 6.39473 18.2213 6.84219Z" fill="#884AFF"/>
</g>
<defs>
<clipPath id="clip0_1_210">
<rect width="29" height="29" fill="white"/>
</clipPath>
</defs>
</svg>
