<svg width="26" height="29" viewBox="0 0 26 29" fill="none" xmlns="http://www.w3.org/2000/svg">
<path d="M-3.05176e-05 26.2819C-3.05176e-05 27.7828 1.24774 29.0006 2.78568 29.0006H23.2143C24.7522 29.0006 26 27.7828 26 26.2819V10.8756H-3.05176e-05V26.2819ZM18.5714 15.1803C18.5714 14.8065 18.8848 14.5006 19.2678 14.5006H21.5893C21.9723 14.5006 22.2857 14.8065 22.2857 15.1803V17.4459C22.2857 17.8198 21.9723 18.1256 21.5893 18.1256H19.2678C18.8848 18.1256 18.5714 17.8198 18.5714 17.4459V15.1803ZM18.5714 22.4303C18.5714 22.0565 18.8848 21.7506 19.2678 21.7506H21.5893C21.9723 21.7506 22.2857 22.0565 22.2857 22.4303V24.6959C22.2857 25.0698 21.9723 25.3756 21.5893 25.3756H19.2678C18.8848 25.3756 18.5714 25.0698 18.5714 24.6959V22.4303ZM11.1428 15.1803C11.1428 14.8065 11.4562 14.5006 11.8393 14.5006H14.1607C14.5437 14.5006 14.8571 14.8065 14.8571 15.1803V17.4459C14.8571 17.8198 14.5437 18.1256 14.1607 18.1256H11.8393C11.4562 18.1256 11.1428 17.8198 11.1428 17.4459V15.1803ZM11.1428 22.4303C11.1428 22.0565 11.4562 21.7506 11.8393 21.7506H14.1607C14.5437 21.7506 14.8571 22.0565 14.8571 22.4303V24.6959C14.8571 25.0698 14.5437 25.3756 14.1607 25.3756H11.8393C11.4562 25.3756 11.1428 25.0698 11.1428 24.6959V22.4303ZM3.71426 15.1803C3.71426 14.8065 4.02765 14.5006 4.41068 14.5006H6.73211C7.11515 14.5006 7.42854 14.8065 7.42854 15.1803V17.4459C7.42854 17.8198 7.11515 18.1256 6.73211 18.1256H4.41068C4.02765 18.1256 3.71426 17.8198 3.71426 17.4459V15.1803ZM3.71426 22.4303C3.71426 22.0565 4.02765 21.7506 4.41068 21.7506H6.73211C7.11515 21.7506 7.42854 22.0565 7.42854 22.4303V24.6959C7.42854 25.0698 7.11515 25.3756 6.73211 25.3756H4.41068C4.02765 25.3756 3.71426 25.0698 3.71426 24.6959V22.4303ZM23.2143 3.62561H20.4285V0.90686C20.4285 0.408423 20.0107 0.000610352 19.5 0.000610352H17.6428C17.1321 0.000610352 16.7143 0.408423 16.7143 0.90686V3.62561H9.28568V0.90686C9.28568 0.408423 8.86783 0.000610352 8.35711 0.000610352H6.49997C5.98925 0.000610352 5.5714 0.408423 5.5714 0.90686V3.62561H2.78568C1.24774 3.62561 -3.05176e-05 4.84338 -3.05176e-05 6.34436V9.06311H26V6.34436C26 4.84338 24.7522 3.62561 23.2143 3.62561Z" fill="#884AFF"/>
</svg>
