<svg width="26" height="29" viewBox="0 0 26 29" fill="none" xmlns="http://www.w3.org/2000/svg">
<path d="M21.3571 7.25H18.5742L18.575 2.71875C18.575 1.21777 17.3272 0 15.7892 0H10.2178C8.67987 0 7.4321 1.21777 7.4321 2.71875L7.42848 7.25H4.64277C3.10482 7.25 1.85706 8.46777 1.85706 9.96875V24.4688C1.85706 25.9697 3.10482 27.1875 4.64277 27.1875H5.57424L5.57134 28.0938C5.57134 28.5979 5.98339 29 6.49991 29H8.35706C8.87357 29 9.28563 28.5979 9.28563 28.0938L9.29143 27.1875H16.72L16.7142 28.0938C16.7142 28.5964 17.1277 29 17.6428 29H19.4999C20.015 29 20.4285 28.5964 20.4285 28.0938L20.4313 27.1875H21.3571C22.895 27.1875 24.1428 25.9697 24.1428 24.4688V9.96875C24.1428 8.46777 22.895 7.25 21.3571 7.25ZM10.22 2.71875H15.7914V7.25H10.22V2.71875ZM19.4999 21.75H6.49991C5.9892 21.75 5.57134 21.3422 5.57134 20.8438C5.57134 20.3453 5.9892 19.9375 6.49991 19.9375H19.4999C20.0107 19.9375 20.4285 20.3453 20.4285 20.8438C20.4285 21.3422 20.0106 21.75 19.4999 21.75ZM19.4999 14.5H6.49991C5.9892 14.5 5.57134 14.0922 5.57134 13.5938C5.57134 13.0953 5.9892 12.6875 6.49991 12.6875H19.4999C20.0106 12.6875 20.4285 13.0953 20.4285 13.5938C20.4285 14.0922 20.0106 14.5 19.4999 14.5Z" fill="#884AFF"/>
</svg>
