<svg width="64" height="64" viewBox="0 0 64 64" fill="none" xmlns="http://www.w3.org/2000/svg">
<path d="M32 24C34.2091 24 36 22.2091 36 20C36 17.7909 34.2091 16 32 16C29.7909 16 28 17.7909 28 20C28 22.2091 29.7909 24 32 24Z" stroke="#514D59" stroke-width="4" stroke-linecap="round" stroke-linejoin="round"/>
<path d="M15 48C21.0751 48 26 43.0751 26 37C26 30.9249 21.0751 26 15 26C8.92487 26 4 30.9249 4 37C4 43.0751 8.92487 48 15 48Z" stroke="#514D59" stroke-width="4" stroke-linecap="round" stroke-linejoin="round"/>
<path d="M10 37C10 35.6739 10.5268 34.4021 11.4645 33.4645C12.4021 32.5268 13.6739 32 15 32" stroke="#514D59" stroke-width="4" stroke-linecap="round" stroke-linejoin="round"/>
<path d="M49 48C55.0751 48 60 43.0751 60 37C60 30.9249 55.0751 26 49 26C42.9249 26 38 30.9249 38 37C38 43.0751 42.9249 48 49 48Z" stroke="#514D59" stroke-width="4" stroke-linecap="round" stroke-linejoin="round"/>
<path d="M44 37C44 35.6739 44.5268 34.4021 45.4645 33.4645C46.4021 32.5268 47.6739 32 49 32" stroke="#514D59" stroke-width="4" stroke-linecap="round" stroke-linejoin="round"/>
<path d="M35.98 20.4C40.0242 21.2187 43.7142 23.2734 46.54 26.28" stroke="#514D59" stroke-width="4" stroke-linecap="round" stroke-linejoin="round"/>
<path d="M17.46 26.28C20.2858 23.2734 23.9758 21.2187 28.02 20.4" stroke="#514D59" stroke-width="4" stroke-linecap="round" stroke-linejoin="round"/>
</svg>
